<svg xmlns="http://www.w3.org/2000/svg" viewBox="0 0 70.326 70.326" width="843.911" height="843.911"><rect width="70.326" height="70.326" fill="#ffffff"/><g fill-opacity="0.62"><circle cx="28.163" cy="10.163" r="0.43" fill="#15223a"/><circle cx="34.163" cy="10.163" r="0.43" fill="#15223a"/><circle cx="36.163" cy="10.163" r="0.43" fill="#15223a"/><circle cx="38.163" cy="10.163" r="0.43" fill="#15223a"/><circle cx="39.163" cy="10.163" r="0.43" fill="#15223a"/><circle cx="41.163" cy="10.163" r="0.43" fill="#15223a"/><circle cx="42.163" cy="10.163" r="0.43" fill="#15223a"/><circle cx="27.163" cy="11.163" r="0.43" fill="#15223a"/><circle cx="29.163" cy="11.163" r="0.43" fill="#15223a"/><circle cx="31.163" cy="11.163" r="0.43" fill="#15223a"/><circle cx="32.163" cy="11.163" r="0.43" fill="#15223a"/><circle cx="33.163" cy="11.163" r="0.43" fill="#15223a"/><circle cx="35.163" cy="11.163" r="0.43" fill="#15223a"/><circle cx="44.163" cy="11.163" r="0.43" fill="#15223a"/><circle cx="24.163" cy="12.163" r="0.43" fill="#15223a"/><circle cx="26.163" cy="12.163" r="0.43" fill="#15223a"/><circle cx="29.163" cy="12.163" r="0.43" fill="#15223a"/><circle cx="33.163" cy="12.163" r="0.43" fill="#15223a"/><circle cx="35.163" cy="12.163" r="0.43" fill="#15223a"/><circle cx="37.163" cy="12.163" r="0.43" fill="#15223a"/><circle cx="39.163" cy="12.163" r="0.43" fill="#15223a"/><circle cx="40.163" cy="12.163" r="0.43" fill="#15223a"/><circle cx="41.163" cy="12.163" r="0.43" fill="#15223a"/><circle cx="42.163" cy="12.163" r="0.43" fill="#15223a"/><circle cx="45.163" cy="12.163" r="0.43" fill="#15223a"/><circle cx="46.163" cy="12.163" r="0.43" fill="#15223a"/><circle cx="22.163" cy="13.163" r="0.43" fill="#15223a"/><circle cx="24.163" cy="13.163" r="0.43" fill="#15223a"/><circle cx="28.163" cy="13.163" r="0.43" fill="#15223a"/><circle cx="30.163" cy="13.163" r="0.43" fill="#15223a"/><circle cx="31.163" cy="13.163" r="0.43" fill="#15223a"/><circle cx="35.163" cy="13.163" r="0.43" fill="#15223a"/><circle cx="37.163" cy="13.163" r="0.43" fill="#15223a"/><circle cx="40.163" cy="13.163" r="0.43" fill="#15223a"/><circle cx="42.163" cy="13.163" r="0.43" fill="#15223a"/><circle cx="44.163" cy="13.163" r="0.43" fill="#15223a"/><circle cx="48.163" cy="13.163" r="0.43" fill="#15223a"/><circle cx="20.163" cy="14.163" r="0.43" fill="#15223a"/><circle cx="23.163" cy="14.163" r="0.43" fill="#15223a"/><circle cx="25.163" cy="14.163" r="0.43" fill="#15223a"/><circle cx="27.163" cy="14.163" r="0.43" fill="#15223a"/><circle cx="28.163" cy="14.163" r="0.43" fill="#15223a"/><circle cx="33.163" cy="14.163" r="0.43" fill="#15223a"/><circle cx="34.163" cy="14.163" r="0.43" fill="#15223a"/><circle cx="37.163" cy="14.163" r="0.43" fill="#15223a"/><circle cx="39.163" cy="14.163" r="0.43" fill="#15223a"/><circle cx="44.163" cy="14.163" r="0.43" fill="#15223a"/><circle cx="46.163" cy="14.163" r="0.43" fill="#15223a"/><circle cx="50.163" cy="14.163" r="0.43" fill="#15223a"/><circle cx="19.163" cy="15.163" r="0.43" fill="#15223a"/><circle cx="21.163" cy="15.163" r="0.43" fill="#15223a"/><circle cx="23.163" cy="15.163" r="0.43" fill="#15223a"/><circle cx="29.163" cy="15.163" r="0.43" fill="#15223a"/><circle cx="30.163" cy="15.163" r="0.43" fill="#15223a"/><circle cx="32.163" cy="15.163" r="0.43" fill="#15223a"/><circle cx="35.163" cy="15.163" r="0.43" fill="#15223a"/><circle cx="37.163" cy="15.163" r="0.43" fill="#15223a"/><circle cx="39.163" cy="15.163" r="0.43" fill="#15223a"/><circle cx="41.163" cy="15.163" r="0.43" fill="#15223a"/><circle cx="42.163" cy="15.163" r="0.43" fill="#15223a"/><circle cx="44.163" cy="15.163" r="0.43" fill="#15223a"/><circle cx="47.163" cy="15.163" r="0.43" fill="#15223a"/><circle cx="48.163" cy="15.163" r="0.43" fill="#15223a"/><circle cx="19.163" cy="16.163" r="0.43" fill="#15223a"/><circle cx="21.163" cy="16.163" r="0.43" fill="#15223a"/><circle cx="24.163" cy="16.163" r="0.43" fill="#15223a"/><circle cx="25.163" cy="16.163" r="0.43" fill="#15223a"/><circle cx="27.163" cy="16.163" r="0.43" fill="#15223a"/><circle cx="29.163" cy="16.163" r="0.43" fill="#15223a"/><circle cx="32.163" cy="16.163" r="0.43" fill="#15223a"/><circle cx="33.163" cy="16.163" r="0.43" fill="#15223a"/><circle cx="34.163" cy="16.163" r="0.43" fill="#15223a"/><circle cx="38.163" cy="16.163" r="0.43" fill="#15223a"/><circle cx="40.163" cy="16.163" r="0.43" fill="#15223a"/><circle cx="43.163" cy="16.163" r="0.43" fill="#15223a"/><circle cx="45.163" cy="16.163" r="0.43" fill="#15223a"/><circle cx="50.163" cy="16.163" r="0.43" fill="#15223a"/><circle cx="51.163" cy="16.163" r="0.43" fill="#15223a"/><circle cx="52.163" cy="16.163" r="0.43" fill="#15223a"/><circle cx="54.163" cy="18.163" r="0.43" fill="#15223a"/><circle cx="15.163" cy="19.163" r="0.43" fill="#15223a"/><circle cx="14.163" cy="20.163" r="0.43" fill="#15223a"/><circle cx="16.163" cy="20.163" r="0.43" fill="#15223a"/><circle cx="54.163" cy="20.163" r="0.43" fill="#15223a"/><circle cx="55.163" cy="20.163" r="0.43" fill="#15223a"/><circle cx="16.163" cy="21.163" r="0.43" fill="#15223a"/><circle cx="56.163" cy="21.163" r="0.43" fill="#15223a"/><circle cx="15.163" cy="22.163" r="0.43" fill="#15223a"/><circle cx="16.163" cy="22.163" r="0.43" fill="#15223a"/><circle cx="54.163" cy="22.163" r="0.43" fill="#15223a"/><circle cx="55.163" cy="22.163" r="0.43" fill="#15223a"/><circle cx="12.163" cy="23.163" r="0.43" fill="#15223a"/><circle cx="13.163" cy="23.163" r="0.43" fill="#15223a"/><circle cx="14.163" cy="23.163" r="0.43" fill="#15223a"/><circle cx="56.163" cy="23.163" r="0.43" fill="#15223a"/><circle cx="58.163" cy="23.163" r="0.43" fill="#15223a"/><circle cx="14.163" cy="24.163" r="0.43" fill="#15223a"/><circle cx="16.163" cy="24.163" r="0.43" fill="#15223a"/><circle cx="54.163" cy="24.163" r="0.43" fill="#15223a"/><circle cx="55.163" cy="24.163" r="0.43" fill="#15223a"/><circle cx="58.163" cy="24.163" r="0.43" fill="#15223a"/><circle cx="12.163" cy="25.163" r="0.43" fill="#15223a"/><circle cx="56.163" cy="25.163" r="0.43" fill="#15223a"/><circle cx="58.163" cy="25.163" r="0.43" fill="#15223a"/><circle cx="11.163" cy="26.163" r="0.43" fill="#15223a"/><circle cx="14.163" cy="26.163" r="0.43" fill="#15223a"/><circle cx="16.163" cy="26.163" r="0.43" fill="#15223a"/><circle cx="54.163" cy="26.163" r="0.43" fill="#15223a"/><circle cx="59.163" cy="26.163" r="0.43" fill="#15223a"/><circle cx="11.163" cy="27.163" r="0.43" fill="#15223a"/><circle cx="13.163" cy="27.163" r="0.43" fill="#15223a"/><circle cx="14.163" cy="27.163" r="0.43" fill="#15223a"/><circle cx="16.163" cy="27.163" r="0.43" fill="#15223a"/><circle cx="55.163" cy="27.163" r="0.43" fill="#15223a"/><circle cx="57.163" cy="27.163" r="0.43" fill="#15223a"/><circle cx="16.163" cy="28.163" r="0.43" fill="#15223a"/><circle cx="54.163" cy="28.163" r="0.43" fill="#15223a"/><circle cx="56.163" cy="28.163" r="0.43" fill="#15223a"/><circle cx="57.163" cy="28.163" r="0.43" fill="#15223a"/><circle cx="59.163" cy="28.163" r="0.43" fill="#15223a"/><circle cx="10.163" cy="29.163" r="0.43" fill="#15223a"/><circle cx="11.163" cy="29.163" r="0.43" fill="#15223a"/><circle cx="13.163" cy="29.163" r="0.43" fill="#15223a"/><circle cx="14.163" cy="29.163" r="0.43" fill="#15223a"/><circle cx="16.163" cy="29.163" r="0.43" fill="#15223a"/><circle cx="56.163" cy="29.163" r="0.43" fill="#15223a"/><circle cx="60.163" cy="29.163" r="0.43" fill="#15223a"/><circle cx="10.163" cy="30.163" r="0.43" fill="#15223a"/><circle cx="15.163" cy="30.163" r="0.43" fill="#15223a"/><circle cx="55.163" cy="30.163" r="0.43" fill="#15223a"/><circle cx="57.163" cy="30.163" r="0.43" fill="#15223a"/><circle cx="60.163" cy="30.163" r="0.43" fill="#15223a"/><circle cx="10.163" cy="31.163" r="0.43" fill="#15223a"/><circle cx="14.163" cy="31.163" r="0.43" fill="#15223a"/><circle cx="59.163" cy="31.163" r="0.43" fill="#15223a"/><circle cx="60.163" cy="31.163" r="0.43" fill="#15223a"/><circle cx="11.163" cy="32.163" r="0.43" fill="#15223a"/><circle cx="12.163" cy="32.163" r="0.43" fill="#15223a"/><circle cx="13.163" cy="32.163" r="0.43" fill="#15223a"/><circle cx="15.163" cy="32.163" r="0.43" fill="#15223a"/><circle cx="55.163" cy="32.163" r="0.43" fill="#15223a"/><circle cx="57.163" cy="32.163" r="0.43" fill="#15223a"/><circle cx="60.163" cy="32.163" r="0.43" fill="#15223a"/><circle cx="10.163" cy="33.163" r="0.43" fill="#15223a"/><circle cx="16.163" cy="33.163" r="0.43" fill="#15223a"/><circle cx="54.163" cy="33.163" r="0.43" fill="#15223a"/><circle cx="58.163" cy="33.163" r="0.43" fill="#15223a"/><circle cx="60.163" cy="33.163" r="0.43" fill="#15223a"/><circle cx="10.163" cy="34.163" r="0.43" fill="#15223a"/><circle cx="12.163" cy="34.163" r="0.43" fill="#15223a"/><circle cx="13.163" cy="34.163" r="0.43" fill="#15223a"/><circle cx="15.163" cy="34.163" r="0.43" fill="#15223a"/><circle cx="55.163" cy="34.163" r="0.43" fill="#15223a"/><circle cx="56.163" cy="34.163" r="0.43" fill="#15223a"/><circle cx="57.163" cy="34.163" r="0.43" fill="#15223a"/><circle cx="60.163" cy="34.163" r="0.43" fill="#15223a"/><circle cx="13.163" cy="35.163" r="0.43" fill="#15223a"/><circle cx="15.163" cy="35.163" r="0.43" fill="#15223a"/><circle cx="54.163" cy="35.163" r="0.43" fill="#15223a"/><circle cx="10.163" cy="36.163" r="0.43" fill="#15223a"/><circle cx="11.163" cy="36.163" r="0.43" fill="#15223a"/><circle cx="12.163" cy="36.163" r="0.43" fill="#15223a"/><circle cx="16.163" cy="36.163" r="0.43" fill="#15223a"/><circle cx="55.163" cy="36.163" r="0.43" fill="#15223a"/><circle cx="56.163" cy="36.163" r="0.43" fill="#15223a"/><circle cx="58.163" cy="36.163" r="0.43" fill="#15223a"/><circle cx="59.163" cy="36.163" r="0.43" fill="#15223a"/><circle cx="60.163" cy="36.163" r="0.43" fill="#15223a"/><circle cx="12.163" cy="37.163" r="0.43" fill="#15223a"/><circle cx="15.163" cy="37.163" r="0.43" fill="#15223a"/><circle cx="58.163" cy="37.163" r="0.43" fill="#15223a"/><circle cx="11.163" cy="38.163" r="0.43" fill="#15223a"/><circle cx="13.163" cy="38.163" r="0.43" fill="#15223a"/><circle cx="16.163" cy="38.163" r="0.43" fill="#15223a"/><circle cx="55.163" cy="38.163" r="0.43" fill="#15223a"/><circle cx="56.163" cy="38.163" r="0.43" fill="#15223a"/><circle cx="57.163" cy="38.163" r="0.43" fill="#15223a"/><circle cx="59.163" cy="38.163" r="0.43" fill="#15223a"/><circle cx="60.163" cy="38.163" r="0.43" fill="#15223a"/><circle cx="13.163" cy="39.163" r="0.43" fill="#15223a"/><circle cx="15.163" cy="39.163" r="0.43" fill="#15223a"/><circle cx="16.163" cy="39.163" r="0.43" fill="#15223a"/><circle cx="55.163" cy="39.163" r="0.43" fill="#15223a"/><circle cx="57.163" cy="39.163" r="0.43" fill="#15223a"/><circle cx="10.163" cy="40.163" r="0.43" fill="#15223a"/><circle cx="12.163" cy="40.163" r="0.43" fill="#15223a"/><circle cx="60.163" cy="40.163" r="0.43" fill="#15223a"/><circle cx="12.163" cy="41.163" r="0.43" fill="#15223a"/><circle cx="14.163" cy="41.163" r="0.43" fill="#15223a"/><circle cx="16.163" cy="41.163" r="0.43" fill="#15223a"/><circle cx="54.163" cy="41.163" r="0.43" fill="#15223a"/><circle cx="55.163" cy="41.163" r="0.43" fill="#15223a"/><circle cx="56.163" cy="41.163" r="0.43" fill="#15223a"/><circle cx="58.163" cy="41.163" r="0.43" fill="#15223a"/><circle cx="59.163" cy="41.163" r="0.43" fill="#15223a"/><circle cx="10.163" cy="42.163" r="0.43" fill="#15223a"/><circle cx="12.163" cy="42.163" r="0.43" fill="#15223a"/><circle cx="13.163" cy="42.163" r="0.43" fill="#15223a"/><circle cx="14.163" cy="42.163" r="0.43" fill="#15223a"/><circle cx="16.163" cy="42.163" r="0.43" fill="#15223a"/><circle cx="54.163" cy="42.163" r="0.43" fill="#15223a"/><circle cx="58.163" cy="42.163" r="0.43" fill="#15223a"/><circle cx="54.163" cy="43.163" r="0.43" fill="#15223a"/><circle cx="56.163" cy="43.163" r="0.43" fill="#15223a"/><circle cx="58.163" cy="43.163" r="0.43" fill="#15223a"/><circle cx="59.163" cy="43.163" r="0.43" fill="#15223a"/><circle cx="11.163" cy="44.163" r="0.43" fill="#15223a"/><circle cx="12.163" cy="44.163" r="0.43" fill="#15223a"/><circle cx="14.163" cy="44.163" r="0.43" fill="#15223a"/><circle cx="15.163" cy="44.163" r="0.43" fill="#15223a"/><circle cx="16.163" cy="44.163" r="0.43" fill="#15223a"/><circle cx="54.163" cy="44.163" r="0.43" fill="#15223a"/><circle cx="56.163" cy="44.163" r="0.43" fill="#15223a"/><circle cx="58.163" cy="44.163" r="0.43" fill="#15223a"/><circle cx="12.163" cy="45.163" r="0.43" fill="#15223a"/><circle cx="55.163" cy="45.163" r="0.43" fill="#15223a"/><circle cx="14.163" cy="46.163" r="0.43" fill="#15223a"/><circle cx="15.163" cy="46.163" r="0.43" fill="#15223a"/><circle cx="16.163" cy="46.163" r="0.43" fill="#15223a"/><circle cx="54.163" cy="46.163" r="0.43" fill="#15223a"/><circle cx="58.163" cy="46.163" r="0.43" fill="#15223a"/><circle cx="12.163" cy="47.163" r="0.43" fill="#15223a"/><circle cx="13.163" cy="47.163" r="0.43" fill="#15223a"/><circle cx="54.163" cy="47.163" r="0.43" fill="#15223a"/><circle cx="55.163" cy="47.163" r="0.43" fill="#15223a"/><circle cx="56.163" cy="47.163" r="0.43" fill="#15223a"/><circle cx="58.163" cy="47.163" r="0.43" fill="#15223a"/><circle cx="14.163" cy="48.163" r="0.43" fill="#15223a"/><circle cx="15.163" cy="48.163" r="0.43" fill="#15223a"/><circle cx="56.163" cy="48.163" r="0.43" fill="#15223a"/><circle cx="14.163" cy="49.163" r="0.43" fill="#15223a"/><circle cx="54.163" cy="49.163" r="0.43" fill="#15223a"/><circle cx="56.163" cy="49.163" r="0.43" fill="#15223a"/><circle cx="14.163" cy="50.163" r="0.43" fill="#15223a"/><circle cx="15.163" cy="50.163" r="0.43" fill="#15223a"/><circle cx="54.163" cy="50.163" r="0.43" fill="#15223a"/><circle cx="56.163" cy="50.163" r="0.43" fill="#15223a"/><circle cx="16.163" cy="51.163" r="0.43" fill="#15223a"/><circle cx="54.163" cy="52.163" r="0.43" fill="#15223a"/><circle cx="20.163" cy="54.163" r="0.43" fill="#15223a"/><circle cx="23.163" cy="54.163" r="0.43" fill="#15223a"/><circle cx="26.163" cy="54.163" r="0.43" fill="#15223a"/><circle cx="28.163" cy="54.163" r="0.43" fill="#15223a"/><circle cx="30.163" cy="54.163" r="0.43" fill="#15223a"/><circle cx="32.163" cy="54.163" r="0.43" fill="#15223a"/><circle cx="34.163" cy="54.163" r="0.43" fill="#15223a"/><circle cx="36.163" cy="54.163" r="0.43" fill="#15223a"/><circle cx="37.163" cy="54.163" r="0.43" fill="#15223a"/><circle cx="43.163" cy="54.163" r="0.43" fill="#15223a"/><circle cx="44.163" cy="54.163" r="0.43" fill="#15223a"/><circle cx="45.163" cy="54.163" r="0.43" fill="#15223a"/><circle cx="47.163" cy="54.163" r="0.43" fill="#15223a"/><circle cx="51.163" cy="54.163" r="0.43" fill="#15223a"/><circle cx="52.163" cy="54.163" r="0.43" fill="#15223a"/><circle cx="19.163" cy="55.163" r="0.43" fill="#15223a"/><circle cx="22.163" cy="55.163" r="0.43" fill="#15223a"/><circle cx="23.163" cy="55.163" r="0.43" fill="#15223a"/><circle cx="26.163" cy="55.163" r="0.43" fill="#15223a"/><circle cx="30.163" cy="55.163" r="0.43" fill="#15223a"/><circle cx="33.163" cy="55.163" r="0.43" fill="#15223a"/><circle cx="34.163" cy="55.163" r="0.43" fill="#15223a"/><circle cx="37.163" cy="55.163" r="0.43" fill="#15223a"/><circle cx="39.163" cy="55.163" r="0.43" fill="#15223a"/><circle cx="40.163" cy="55.163" r="0.43" fill="#15223a"/><circle cx="41.163" cy="55.163" r="0.43" fill="#15223a"/><circle cx="42.163" cy="55.163" r="0.43" fill="#15223a"/><circle cx="49.163" cy="55.163" r="0.43" fill="#15223a"/><circle cx="50.163" cy="55.163" r="0.43" fill="#15223a"/><circle cx="20.163" cy="56.163" r="0.43" fill="#15223a"/><circle cx="21.163" cy="56.163" r="0.43" fill="#15223a"/><circle cx="24.163" cy="56.163" r="0.43" fill="#15223a"/><circle cx="28.163" cy="56.163" r="0.43" fill="#15223a"/><circle cx="30.163" cy="56.163" r="0.43" fill="#15223a"/><circle cx="35.163" cy="56.163" r="0.43" fill="#15223a"/><circle cx="37.163" cy="56.163" r="0.43" fill="#15223a"/><circle cx="43.163" cy="56.163" r="0.43" fill="#15223a"/><circle cx="44.163" cy="56.163" r="0.43" fill="#15223a"/><circle cx="46.163" cy="56.163" r="0.43" fill="#15223a"/><circle cx="47.163" cy="56.163" r="0.43" fill="#15223a"/><circle cx="50.163" cy="56.163" r="0.43" fill="#15223a"/><circle cx="23.163" cy="57.163" r="0.43" fill="#15223a"/><circle cx="25.163" cy="57.163" r="0.43" fill="#15223a"/><circle cx="26.163" cy="57.163" r="0.43" fill="#15223a"/><circle cx="32.163" cy="57.163" r="0.43" fill="#15223a"/><circle cx="33.163" cy="57.163" r="0.43" fill="#15223a"/><circle cx="35.163" cy="57.163" r="0.43" fill="#15223a"/><circle cx="38.163" cy="57.163" r="0.43" fill="#15223a"/><circle cx="40.163" cy="57.163" r="0.43" fill="#15223a"/><circle cx="43.163" cy="57.163" r="0.43" fill="#15223a"/><circle cx="48.163" cy="57.163" r="0.43" fill="#15223a"/><circle cx="23.163" cy="58.163" r="0.43" fill="#15223a"/><circle cx="25.163" cy="58.163" r="0.43" fill="#15223a"/><circle cx="28.163" cy="58.163" r="0.43" fill="#15223a"/><circle cx="31.163" cy="58.163" r="0.43" fill="#15223a"/><circle cx="40.163" cy="58.163" r="0.43" fill="#15223a"/><circle cx="41.163" cy="58.163" r="0.43" fill="#15223a"/><circle cx="43.163" cy="58.163" r="0.43" fill="#15223a"/><circle cx="46.163" cy="58.163" r="0.43" fill="#15223a"/><circle cx="27.163" cy="59.163" r="0.43" fill="#15223a"/><circle cx="29.163" cy="59.163" r="0.43" fill="#15223a"/><circle cx="31.163" cy="59.163" r="0.43" fill="#15223a"/><circle cx="34.163" cy="59.163" r="0.43" fill="#15223a"/><circle cx="35.163" cy="59.163" r="0.43" fill="#15223a"/><circle cx="37.163" cy="59.163" r="0.43" fill="#15223a"/><circle cx="39.163" cy="59.163" r="0.43" fill="#15223a"/><circle cx="43.163" cy="59.163" r="0.43" fill="#15223a"/><circle cx="28.163" cy="60.163" r="0.43" fill="#15223a"/><circle cx="31.163" cy="60.163" r="0.43" fill="#15223a"/><circle cx="33.163" cy="60.163" r="0.43" fill="#15223a"/><circle cx="34.163" cy="60.163" r="0.43" fill="#15223a"/><circle cx="39.163" cy="60.163" r="0.43" fill="#15223a"/><circle cx="40.163" cy="60.163" r="0.43" fill="#15223a"/><circle cx="42.163" cy="60.163" r="0.43" fill="#15223a"/></g><circle cx="25.163" cy="17.163" r="0.5" fill="#15223a"/><circle cx="26.163" cy="17.163" r="0.5" fill="#15223a"/><circle cx="32.163" cy="17.163" r="0.5" fill="#15223a"/><circle cx="33.163" cy="17.163" r="0.5" fill="#15223a"/><circle cx="34.163" cy="17.163" r="0.5" fill="#15223a"/><circle cx="37.163" cy="17.163" r="0.5" fill="#15223a"/><circle cx="38.163" cy="17.163" r="0.5" fill="#15223a"/><circle cx="39.163" cy="17.163" r="0.5" fill="#15223a"/><circle cx="40.163" cy="17.163" r="0.5" fill="#15223a"/><circle cx="25.163" cy="18.163" r="0.5" fill="#15223a"/><circle cx="29.163" cy="18.163" r="0.5" fill="#15223a"/><circle cx="31.163" cy="18.163" r="0.5" fill="#15223a"/><circle cx="32.163" cy="18.163" r="0.5" fill="#15223a"/><circle cx="35.163" cy="18.163" r="0.5" fill="#15223a"/><circle cx="37.163" cy="18.163" r="0.5" fill="#15223a"/><circle cx="39.163" cy="18.163" r="0.5" fill="#15223a"/><circle cx="40.163" cy="18.163" r="0.5" fill="#15223a"/><circle cx="44.163" cy="18.163" r="0.5" fill="#15223a"/><circle cx="25.163" cy="19.163" r="0.5" fill="#15223a"/><circle cx="29.163" cy="19.163" r="0.5" fill="#15223a"/><circle cx="30.163" cy="19.163" r="0.5" fill="#15223a"/><circle cx="32.163" cy="19.163" r="0.5" fill="#15223a"/><circle cx="35.163" cy="19.163" r="0.5" fill="#15223a"/><circle cx="37.163" cy="19.163" r="0.5" fill="#15223a"/><circle cx="38.163" cy="19.163" r="0.5" fill="#15223a"/><circle cx="40.163" cy="19.163" r="0.5" fill="#15223a"/><circle cx="41.163" cy="19.163" r="0.5" fill="#15223a"/><circle cx="43.163" cy="19.163" r="0.5" fill="#15223a"/><circle cx="27.163" cy="20.163" r="0.5" fill="#15223a"/><circle cx="29.163" cy="20.163" r="0.5" fill="#15223a"/><circle cx="30.163" cy="20.163" r="0.5" fill="#15223a"/><circle cx="33.163" cy="20.163" r="0.5" fill="#15223a"/><circle cx="35.163" cy="20.163" r="0.5" fill="#15223a"/><circle cx="36.163" cy="20.163" r="0.5" fill="#15223a"/><circle cx="38.163" cy="20.163" r="0.5" fill="#15223a"/><circle cx="39.163" cy="20.163" r="0.5" fill="#15223a"/><circle cx="40.163" cy="20.163" r="0.5" fill="#15223a"/><circle cx="41.163" cy="20.163" r="0.5" fill="#15223a"/><circle cx="42.163" cy="20.163" r="0.5" fill="#15223a"/><circle cx="43.163" cy="20.163" r="0.5" fill="#15223a"/><circle cx="44.163" cy="20.163" r="0.5" fill="#15223a"/><circle cx="26.163" cy="21.163" r="0.5" fill="#15223a"/><circle cx="28.163" cy="21.163" r="0.5" fill="#15223a"/><circle cx="29.163" cy="21.163" r="0.5" fill="#15223a"/><circle cx="30.163" cy="21.163" r="0.5" fill="#15223a"/><circle cx="33.163" cy="21.163" r="0.5" fill="#15223a"/><circle cx="36.163" cy="21.163" r="0.5" fill="#15223a"/><circle cx="39.163" cy="21.163" r="0.5" fill="#15223a"/><circle cx="40.163" cy="21.163" r="0.5" fill="#15223a"/><circle cx="42.163" cy="21.163" r="0.5" fill="#15223a"/><circle cx="43.163" cy="21.163" r="0.5" fill="#15223a"/><circle cx="25.163" cy="22.163" r="0.5" fill="#15223a"/><circle cx="31.163" cy="22.163" r="0.5" fill="#15223a"/><circle cx="32.163" cy="22.163" r="0.5" fill="#15223a"/><circle cx="36.163" cy="22.163" r="0.5" fill="#15223a"/><circle cx="38.163" cy="22.163" r="0.5" fill="#15223a"/><circle cx="39.163" cy="22.163" r="0.5" fill="#15223a"/><circle cx="40.163" cy="22.163" r="0.5" fill="#15223a"/><circle cx="42.163" cy="22.163" r="0.5" fill="#15223a"/><circle cx="43.163" cy="22.163" r="0.5" fill="#15223a"/><circle cx="44.163" cy="22.163" r="0.5" fill="#15223a"/><circle cx="45.163" cy="22.163" r="0.5" fill="#15223a"/><circle cx="25.163" cy="23.163" r="0.5" fill="#15223a"/><circle cx="27.163" cy="23.163" r="0.5" fill="#15223a"/><circle cx="29.163" cy="23.163" r="0.5" fill="#15223a"/><circle cx="31.163" cy="23.163" r="0.5" fill="#15223a"/><circle cx="33.163" cy="23.163" r="0.5" fill="#15223a"/><circle cx="35.163" cy="23.163" r="0.5" fill="#15223a"/><circle cx="37.163" cy="23.163" r="0.5" fill="#15223a"/><circle cx="39.163" cy="23.163" r="0.5" fill="#15223a"/><circle cx="41.163" cy="23.163" r="0.5" fill="#15223a"/><circle cx="43.163" cy="23.163" r="0.5" fill="#15223a"/><circle cx="45.163" cy="23.163" r="0.5" fill="#15223a"/><circle cx="25.163" cy="24.163" r="0.5" fill="#15223a"/><circle cx="26.163" cy="24.163" r="0.5" fill="#15223a"/><circle cx="28.163" cy="24.163" r="0.5" fill="#15223a"/><circle cx="30.163" cy="24.163" r="0.5" fill="#15223a"/><circle cx="34.163" cy="24.163" r="0.5" fill="#15223a"/><circle cx="37.163" cy="24.163" r="0.5" fill="#15223a"/><circle cx="39.163" cy="24.163" r="0.5" fill="#15223a"/><circle cx="40.163" cy="24.163" r="0.5" fill="#15223a"/><circle cx="42.163" cy="24.163" r="0.5" fill="#15223a"/><circle cx="45.163" cy="24.163" r="0.5" fill="#15223a"/><circle cx="19.163" cy="25.163" r="0.5" fill="#15223a"/><circle cx="20.163" cy="25.163" r="0.5" fill="#15223a"/><circle cx="21.163" cy="25.163" r="0.5" fill="#15223a"/><circle cx="23.163" cy="25.163" r="0.5" fill="#15223a"/><circle cx="25.163" cy="25.163" r="0.5" fill="#15223a"/><circle cx="26.163" cy="25.163" r="0.5" fill="#15223a"/><circle cx="28.163" cy="25.163" r="0.5" fill="#15223a"/><circle cx="29.163" cy="25.163" r="0.5" fill="#15223a"/><circle cx="31.163" cy="25.163" r="0.5" fill="#15223a"/><circle cx="34.163" cy="25.163" r="0.5" fill="#15223a"/><circle cx="35.163" cy="25.163" r="0.5" fill="#15223a"/><circle cx="36.163" cy="25.163" r="0.5" fill="#15223a"/><circle cx="38.163" cy="25.163" r="0.5" fill="#15223a"/><circle cx="41.163" cy="25.163" r="0.5" fill="#15223a"/><circle cx="43.163" cy="25.163" r="0.5" fill="#15223a"/><circle cx="45.163" cy="25.163" r="0.5" fill="#15223a"/><circle cx="46.163" cy="25.163" r="0.5" fill="#15223a"/><circle cx="47.163" cy="25.163" r="0.5" fill="#15223a"/><circle cx="48.163" cy="25.163" r="0.5" fill="#15223a"/><circle cx="51.163" cy="25.163" r="0.5" fill="#15223a"/><circle cx="52.163" cy="25.163" r="0.5" fill="#15223a"/><circle cx="53.163" cy="25.163" r="0.5" fill="#15223a"/><circle cx="17.163" cy="26.163" r="0.5" fill="#15223a"/><circle cx="18.163" cy="26.163" r="0.5" fill="#15223a"/><circle cx="20.163" cy="26.163" r="0.5" fill="#15223a"/><circle cx="21.163" cy="26.163" r="0.5" fill="#15223a"/><circle cx="24.163" cy="26.163" r="0.5" fill="#15223a"/><circle cx="27.163" cy="26.163" r="0.5" fill="#15223a"/><circle cx="30.163" cy="26.163" r="0.5" fill="#15223a"/><circle cx="31.163" cy="26.163" r="0.5" fill="#15223a"/><circle cx="32.163" cy="26.163" r="0.5" fill="#15223a"/><circle cx="33.163" cy="26.163" r="0.5" fill="#15223a"/><circle cx="34.163" cy="26.163" r="0.5" fill="#15223a"/><circle cx="35.163" cy="26.163" r="0.5" fill="#15223a"/><circle cx="38.163" cy="26.163" r="0.5" fill="#15223a"/><circle cx="39.163" cy="26.163" r="0.5" fill="#15223a"/><circle cx="40.163" cy="26.163" r="0.5" fill="#15223a"/><circle cx="41.163" cy="26.163" r="0.5" fill="#15223a"/><circle cx="42.163" cy="26.163" r="0.5" fill="#15223a"/><circle cx="44.163" cy="26.163" r="0.5" fill="#15223a"/><circle cx="47.163" cy="26.163" r="0.5" fill="#15223a"/><circle cx="48.163" cy="26.163" r="0.5" fill="#15223a"/><circle cx="49.163" cy="26.163" r="0.5" fill="#15223a"/><circle cx="51.163" cy="26.163" r="0.5" fill="#15223a"/><circle cx="52.163" cy="26.163" r="0.5" fill="#15223a"/><circle cx="22.163" cy="27.163" r="0.5" fill="#15223a"/><circle cx="23.163" cy="27.163" r="0.5" fill="#15223a"/><circle cx="25.163" cy="27.163" r="0.5" fill="#15223a"/><circle cx="26.163" cy="27.163" r="0.5" fill="#15223a"/><circle cx="28.163" cy="27.163" r="0.5" fill="#15223a"/><circle cx="31.163" cy="27.163" r="0.5" fill="#15223a"/><circle cx="34.163" cy="27.163" r="0.5" fill="#15223a"/><circle cx="37.163" cy="27.163" r="0.5" fill="#15223a"/><circle cx="38.163" cy="27.163" r="0.5" fill="#15223a"/><circle cx="40.163" cy="27.163" r="0.5" fill="#15223a"/><circle cx="41.163" cy="27.163" r="0.5" fill="#15223a"/><circle cx="42.163" cy="27.163" r="0.5" fill="#15223a"/><circle cx="43.163" cy="27.163" r="0.5" fill="#15223a"/><circle cx="44.163" cy="27.163" r="0.5" fill="#15223a"/><circle cx="45.163" cy="27.163" r="0.5" fill="#15223a"/><circle cx="47.163" cy="27.163" r="0.5" fill="#15223a"/><circle cx="49.163" cy="27.163" r="0.5" fill="#15223a"/><circle cx="50.163" cy="27.163" r="0.5" fill="#15223a"/><circle cx="51.163" cy="27.163" r="0.5" fill="#15223a"/><circle cx="52.163" cy="27.163" r="0.5" fill="#15223a"/><circle cx="53.163" cy="27.163" r="0.5" fill="#15223a"/><circle cx="19.163" cy="28.163" r="0.5" fill="#15223a"/><circle cx="21.163" cy="28.163" r="0.5" fill="#15223a"/><circle cx="22.163" cy="28.163" r="0.5" fill="#15223a"/><circle cx="24.163" cy="28.163" r="0.5" fill="#15223a"/><circle cx="26.163" cy="28.163" r="0.5" fill="#15223a"/><circle cx="27.163" cy="28.163" r="0.5" fill="#15223a"/><circle cx="28.163" cy="28.163" r="0.5" fill="#15223a"/><circle cx="31.163" cy="28.163" r="0.5" fill="#15223a"/><circle cx="32.163" cy="28.163" r="0.5" fill="#15223a"/><circle cx="33.163" cy="28.163" r="0.5" fill="#15223a"/><circle cx="36.163" cy="28.163" r="0.5" fill="#15223a"/><circle cx="37.163" cy="28.163" r="0.5" fill="#15223a"/><circle cx="40.163" cy="28.163" r="0.5" fill="#15223a"/><circle cx="43.163" cy="28.163" r="0.5" fill="#15223a"/><circle cx="44.163" cy="28.163" r="0.5" fill="#15223a"/><circle cx="47.163" cy="28.163" r="0.5" fill="#15223a"/><circle cx="48.163" cy="28.163" r="0.5" fill="#15223a"/><circle cx="49.163" cy="28.163" r="0.5" fill="#15223a"/><circle cx="52.163" cy="28.163" r="0.5" fill="#15223a"/><circle cx="53.163" cy="28.163" r="0.5" fill="#15223a"/><circle cx="18.163" cy="29.163" r="0.5" fill="#15223a"/><circle cx="22.163" cy="29.163" r="0.5" fill="#15223a"/><circle cx="23.163" cy="29.163" r="0.5" fill="#15223a"/><circle cx="24.163" cy="29.163" r="0.5" fill="#15223a"/><circle cx="26.163" cy="29.163" r="0.5" fill="#15223a"/><circle cx="29.163" cy="29.163" r="0.5" fill="#15223a"/><circle cx="31.163" cy="29.163" r="0.5" fill="#15223a"/><circle cx="35.163" cy="29.163" r="0.5" fill="#15223a"/><circle cx="37.163" cy="29.163" r="0.5" fill="#15223a"/><circle cx="39.163" cy="29.163" r="0.5" fill="#15223a"/><circle cx="42.163" cy="29.163" r="0.5" fill="#15223a"/><circle cx="43.163" cy="29.163" r="0.5" fill="#15223a"/><circle cx="44.163" cy="29.163" r="0.5" fill="#15223a"/><circle cx="46.163" cy="29.163" r="0.5" fill="#15223a"/><circle cx="47.163" cy="29.163" r="0.5" fill="#15223a"/><circle cx="48.163" cy="29.163" r="0.5" fill="#15223a"/><circle cx="49.163" cy="29.163" r="0.5" fill="#15223a"/><circle cx="50.163" cy="29.163" r="0.5" fill="#15223a"/><circle cx="51.163" cy="29.163" r="0.5" fill="#15223a"/><circle cx="52.163" cy="29.163" r="0.5" fill="#15223a"/><circle cx="53.163" cy="29.163" r="0.5" fill="#15223a"/><circle cx="17.163" cy="30.163" r="0.5" fill="#15223a"/><circle cx="18.163" cy="30.163" r="0.5" fill="#15223a"/><circle cx="19.163" cy="30.163" r="0.5" fill="#15223a"/><circle cx="21.163" cy="30.163" r="0.5" fill="#15223a"/><circle cx="22.163" cy="30.163" r="0.5" fill="#15223a"/><circle cx="26.163" cy="30.163" r="0.5" fill="#15223a"/><circle cx="27.163" cy="30.163" r="0.5" fill="#15223a"/><circle cx="29.163" cy="30.163" r="0.5" fill="#15223a"/><circle cx="30.163" cy="30.163" r="0.5" fill="#15223a"/><circle cx="38.163" cy="30.163" r="0.5" fill="#15223a"/><circle cx="40.163" cy="30.163" r="0.5" fill="#15223a"/><circle cx="42.163" cy="30.163" r="0.5" fill="#15223a"/><circle cx="45.163" cy="30.163" r="0.5" fill="#15223a"/><circle cx="46.163" cy="30.163" r="0.5" fill="#15223a"/><circle cx="48.163" cy="30.163" r="0.5" fill="#15223a"/><circle cx="50.163" cy="30.163" r="0.5" fill="#15223a"/><circle cx="51.163" cy="30.163" r="0.5" fill="#15223a"/><circle cx="21.163" cy="31.163" r="0.5" fill="#15223a"/><circle cx="22.163" cy="31.163" r="0.5" fill="#15223a"/><circle cx="23.163" cy="31.163" r="0.5" fill="#15223a"/><circle cx="26.163" cy="31.163" r="0.5" fill="#15223a"/><circle cx="27.163" cy="31.163" r="0.5" fill="#15223a"/><circle cx="29.163" cy="31.163" r="0.5" fill="#15223a"/><circle cx="30.163" cy="31.163" r="0.5" fill="#15223a"/><circle cx="39.163" cy="31.163" r="0.5" fill="#15223a"/><circle cx="41.163" cy="31.163" r="0.5" fill="#15223a"/><circle cx="42.163" cy="31.163" r="0.5" fill="#15223a"/><circle cx="43.163" cy="31.163" r="0.5" fill="#15223a"/><circle cx="44.163" cy="31.163" r="0.5" fill="#15223a"/><circle cx="45.163" cy="31.163" r="0.5" fill="#15223a"/><circle cx="46.163" cy="31.163" r="0.5" fill="#15223a"/><circle cx="48.163" cy="31.163" r="0.5" fill="#15223a"/><circle cx="50.163" cy="31.163" r="0.5" fill="#15223a"/><circle cx="53.163" cy="31.163" r="0.5" fill="#15223a"/><circle cx="18.163" cy="32.163" r="0.5" fill="#15223a"/><circle cx="19.163" cy="32.163" r="0.5" fill="#15223a"/><circle cx="20.163" cy="32.163" r="0.5" fill="#15223a"/><circle cx="24.163" cy="32.163" r="0.5" fill="#15223a"/><circle cx="26.163" cy="32.163" r="0.5" fill="#15223a"/><circle cx="28.163" cy="32.163" r="0.5" fill="#15223a"/><circle cx="41.163" cy="32.163" r="0.5" fill="#15223a"/><circle cx="45.163" cy="32.163" r="0.5" fill="#15223a"/><circle cx="53.163" cy="32.163" r="0.5" fill="#15223a"/><circle cx="17.163" cy="33.163" r="0.5" fill="#15223a"/><circle cx="20.163" cy="33.163" r="0.5" fill="#15223a"/><circle cx="23.163" cy="33.163" r="0.5" fill="#15223a"/><circle cx="24.163" cy="33.163" r="0.5" fill="#15223a"/><circle cx="25.163" cy="33.163" r="0.5" fill="#15223a"/><circle cx="26.163" cy="33.163" r="0.5" fill="#15223a"/><circle cx="41.163" cy="33.163" r="0.5" fill="#15223a"/><circle cx="42.163" cy="33.163" r="0.5" fill="#15223a"/><circle cx="43.163" cy="33.163" r="0.5" fill="#15223a"/><circle cx="44.163" cy="33.163" r="0.5" fill="#15223a"/><circle cx="45.163" cy="33.163" r="0.5" fill="#15223a"/><circle cx="47.163" cy="33.163" r="0.5" fill="#15223a"/><circle cx="49.163" cy="33.163" r="0.5" fill="#15223a"/><circle cx="51.163" cy="33.163" r="0.5" fill="#15223a"/><circle cx="18.163" cy="34.163" r="0.5" fill="#15223a"/><circle cx="19.163" cy="34.163" r="0.5" fill="#15223a"/><circle cx="20.163" cy="34.163" r="0.5" fill="#15223a"/><circle cx="21.163" cy="34.163" r="0.5" fill="#15223a"/><circle cx="22.163" cy="34.163" r="0.5" fill="#15223a"/><circle cx="26.163" cy="34.163" r="0.5" fill="#15223a"/><circle cx="27.163" cy="34.163" r="0.5" fill="#15223a"/><circle cx="45.163" cy="34.163" r="0.5" fill="#15223a"/><circle cx="48.163" cy="34.163" r="0.5" fill="#15223a"/><circle cx="51.163" cy="34.163" r="0.5" fill="#15223a"/><circle cx="18.163" cy="35.163" r="0.5" fill="#15223a"/><circle cx="21.163" cy="35.163" r="0.5" fill="#15223a"/><circle cx="23.163" cy="35.163" r="0.5" fill="#15223a"/><circle cx="24.163" cy="35.163" r="0.5" fill="#15223a"/><circle cx="25.163" cy="35.163" r="0.5" fill="#15223a"/><circle cx="28.163" cy="35.163" r="0.5" fill="#15223a"/><circle cx="42.163" cy="35.163" r="0.5" fill="#15223a"/><circle cx="44.163" cy="35.163" r="0.5" fill="#15223a"/><circle cx="45.163" cy="35.163" r="0.5" fill="#15223a"/><circle cx="47.163" cy="35.163" r="0.5" fill="#15223a"/><circle cx="48.163" cy="35.163" r="0.5" fill="#15223a"/><circle cx="49.163" cy="35.163" r="0.5" fill="#15223a"/><circle cx="52.163" cy="35.163" r="0.5" fill="#15223a"/><circle cx="53.163" cy="35.163" r="0.5" fill="#15223a"/><circle cx="21.163" cy="36.163" r="0.5" fill="#15223a"/><circle cx="22.163" cy="36.163" r="0.5" fill="#15223a"/><circle cx="24.163" cy="36.163" r="0.5" fill="#15223a"/><circle cx="26.163" cy="36.163" r="0.5" fill="#15223a"/><circle cx="43.163" cy="36.163" r="0.5" fill="#15223a"/><circle cx="44.163" cy="36.163" r="0.5" fill="#15223a"/><circle cx="47.163" cy="36.163" r="0.5" fill="#15223a"/><circle cx="48.163" cy="36.163" r="0.5" fill="#15223a"/><circle cx="53.163" cy="36.163" r="0.5" fill="#15223a"/><circle cx="18.163" cy="37.163" r="0.5" fill="#15223a"/><circle cx="20.163" cy="37.163" r="0.5" fill="#15223a"/><circle cx="21.163" cy="37.163" r="0.5" fill="#15223a"/><circle cx="23.163" cy="37.163" r="0.5" fill="#15223a"/><circle cx="42.163" cy="37.163" r="0.5" fill="#15223a"/><circle cx="43.163" cy="37.163" r="0.5" fill="#15223a"/><circle cx="44.163" cy="37.163" r="0.5" fill="#15223a"/><circle cx="46.163" cy="37.163" r="0.5" fill="#15223a"/><circle cx="47.163" cy="37.163" r="0.5" fill="#15223a"/><circle cx="48.163" cy="37.163" r="0.5" fill="#15223a"/><circle cx="49.163" cy="37.163" r="0.5" fill="#15223a"/><circle cx="50.163" cy="37.163" r="0.5" fill="#15223a"/><circle cx="51.163" cy="37.163" r="0.5" fill="#15223a"/><circle cx="52.163" cy="37.163" r="0.5" fill="#15223a"/><circle cx="53.163" cy="37.163" r="0.5" fill="#15223a"/><circle cx="17.163" cy="38.163" r="0.5" fill="#15223a"/><circle cx="19.163" cy="38.163" r="0.5" fill="#15223a"/><circle cx="20.163" cy="38.163" r="0.5" fill="#15223a"/><circle cx="21.163" cy="38.163" r="0.5" fill="#15223a"/><circle cx="29.163" cy="38.163" r="0.5" fill="#15223a"/><circle cx="30.163" cy="38.163" r="0.5" fill="#15223a"/><circle cx="40.163" cy="38.163" r="0.5" fill="#15223a"/><circle cx="48.163" cy="38.163" r="0.5" fill="#15223a"/><circle cx="50.163" cy="38.163" r="0.5" fill="#15223a"/><circle cx="17.163" cy="39.163" r="0.5" fill="#15223a"/><circle cx="18.163" cy="39.163" r="0.5" fill="#15223a"/><circle cx="19.163" cy="39.163" r="0.5" fill="#15223a"/><circle cx="20.163" cy="39.163" r="0.5" fill="#15223a"/><circle cx="22.163" cy="39.163" r="0.5" fill="#15223a"/><circle cx="23.163" cy="39.163" r="0.5" fill="#15223a"/><circle cx="24.163" cy="39.163" r="0.5" fill="#15223a"/><circle cx="26.163" cy="39.163" r="0.5" fill="#15223a"/><circle cx="27.163" cy="39.163" r="0.5" fill="#15223a"/><circle cx="31.163" cy="39.163" r="0.5" fill="#15223a"/><circle cx="39.163" cy="39.163" r="0.5" fill="#15223a"/><circle cx="40.163" cy="39.163" r="0.5" fill="#15223a"/><circle cx="44.163" cy="39.163" r="0.5" fill="#15223a"/><circle cx="47.163" cy="39.163" r="0.5" fill="#15223a"/><circle cx="50.163" cy="39.163" r="0.5" fill="#15223a"/><circle cx="51.163" cy="39.163" r="0.5" fill="#15223a"/><circle cx="53.163" cy="39.163" r="0.5" fill="#15223a"/><circle cx="17.163" cy="40.163" r="0.5" fill="#15223a"/><circle cx="19.163" cy="40.163" r="0.5" fill="#15223a"/><circle cx="21.163" cy="40.163" r="0.5" fill="#15223a"/><circle cx="24.163" cy="40.163" r="0.5" fill="#15223a"/><circle cx="25.163" cy="40.163" r="0.5" fill="#15223a"/><circle cx="26.163" cy="40.163" r="0.5" fill="#15223a"/><circle cx="27.163" cy="40.163" r="0.5" fill="#15223a"/><circle cx="31.163" cy="40.163" r="0.5" fill="#15223a"/><circle cx="38.163" cy="40.163" r="0.5" fill="#15223a"/><circle cx="40.163" cy="40.163" r="0.5" fill="#15223a"/><circle cx="41.163" cy="40.163" r="0.5" fill="#15223a"/><circle cx="43.163" cy="40.163" r="0.5" fill="#15223a"/><circle cx="46.163" cy="40.163" r="0.5" fill="#15223a"/><circle cx="47.163" cy="40.163" r="0.5" fill="#15223a"/><circle cx="48.163" cy="40.163" r="0.5" fill="#15223a"/><circle cx="19.163" cy="41.163" r="0.5" fill="#15223a"/><circle cx="20.163" cy="41.163" r="0.5" fill="#15223a"/><circle cx="21.163" cy="41.163" r="0.5" fill="#15223a"/><circle cx="23.163" cy="41.163" r="0.5" fill="#15223a"/><circle cx="25.163" cy="41.163" r="0.5" fill="#15223a"/><circle cx="26.163" cy="41.163" r="0.5" fill="#15223a"/><circle cx="27.163" cy="41.163" r="0.5" fill="#15223a"/><circle cx="28.163" cy="41.163" r="0.5" fill="#15223a"/><circle cx="30.163" cy="41.163" r="0.5" fill="#15223a"/><circle cx="31.163" cy="41.163" r="0.5" fill="#15223a"/><circle cx="33.163" cy="41.163" r="0.5" fill="#15223a"/><circle cx="34.163" cy="41.163" r="0.5" fill="#15223a"/><circle cx="37.163" cy="41.163" r="0.5" fill="#15223a"/><circle cx="38.163" cy="41.163" r="0.5" fill="#15223a"/><circle cx="47.163" cy="41.163" r="0.5" fill="#15223a"/><circle cx="51.163" cy="41.163" r="0.5" fill="#15223a"/><circle cx="53.163" cy="41.163" r="0.5" fill="#15223a"/><circle cx="17.163" cy="42.163" r="0.5" fill="#15223a"/><circle cx="19.163" cy="42.163" r="0.5" fill="#15223a"/><circle cx="21.163" cy="42.163" r="0.5" fill="#15223a"/><circle cx="27.163" cy="42.163" r="0.5" fill="#15223a"/><circle cx="29.163" cy="42.163" r="0.5" fill="#15223a"/><circle cx="32.163" cy="42.163" r="0.5" fill="#15223a"/><circle cx="33.163" cy="42.163" r="0.5" fill="#15223a"/><circle cx="38.163" cy="42.163" r="0.5" fill="#15223a"/><circle cx="39.163" cy="42.163" r="0.5" fill="#15223a"/><circle cx="41.163" cy="42.163" r="0.5" fill="#15223a"/><circle cx="42.163" cy="42.163" r="0.5" fill="#15223a"/><circle cx="43.163" cy="42.163" r="0.5" fill="#15223a"/><circle cx="44.163" cy="42.163" r="0.5" fill="#15223a"/><circle cx="45.163" cy="42.163" r="0.5" fill="#15223a"/><circle cx="46.163" cy="42.163" r="0.5" fill="#15223a"/><circle cx="47.163" cy="42.163" r="0.5" fill="#15223a"/><circle cx="50.163" cy="42.163" r="0.5" fill="#15223a"/><circle cx="51.163" cy="42.163" r="0.5" fill="#15223a"/><circle cx="52.163" cy="42.163" r="0.5" fill="#15223a"/><circle cx="17.163" cy="43.163" r="0.5" fill="#15223a"/><circle cx="19.163" cy="43.163" r="0.5" fill="#15223a"/><circle cx="20.163" cy="43.163" r="0.5" fill="#15223a"/><circle cx="22.163" cy="43.163" r="0.5" fill="#15223a"/><circle cx="23.163" cy="43.163" r="0.5" fill="#15223a"/><circle cx="24.163" cy="43.163" r="0.5" fill="#15223a"/><circle cx="25.163" cy="43.163" r="0.5" fill="#15223a"/><circle cx="27.163" cy="43.163" r="0.5" fill="#15223a"/><circle cx="30.163" cy="43.163" r="0.5" fill="#15223a"/><circle cx="32.163" cy="43.163" r="0.5" fill="#15223a"/><circle cx="33.163" cy="43.163" r="0.5" fill="#15223a"/><circle cx="34.163" cy="43.163" r="0.5" fill="#15223a"/><circle cx="35.163" cy="43.163" r="0.5" fill="#15223a"/><circle cx="36.163" cy="43.163" r="0.5" fill="#15223a"/><circle cx="38.163" cy="43.163" r="0.5" fill="#15223a"/><circle cx="42.163" cy="43.163" r="0.5" fill="#15223a"/><circle cx="43.163" cy="43.163" r="0.5" fill="#15223a"/><circle cx="47.163" cy="43.163" r="0.5" fill="#15223a"/><circle cx="49.163" cy="43.163" r="0.5" fill="#15223a"/><circle cx="52.163" cy="43.163" r="0.5" fill="#15223a"/><circle cx="53.163" cy="43.163" r="0.5" fill="#15223a"/><circle cx="17.163" cy="44.163" r="0.5" fill="#15223a"/><circle cx="21.163" cy="44.163" r="0.5" fill="#15223a"/><circle cx="27.163" cy="44.163" r="0.5" fill="#15223a"/><circle cx="28.163" cy="44.163" r="0.5" fill="#15223a"/><circle cx="29.163" cy="44.163" r="0.5" fill="#15223a"/><circle cx="30.163" cy="44.163" r="0.5" fill="#15223a"/><circle cx="33.163" cy="44.163" r="0.5" fill="#15223a"/><circle cx="34.163" cy="44.163" r="0.5" fill="#15223a"/><circle cx="36.163" cy="44.163" r="0.5" fill="#15223a"/><circle cx="41.163" cy="44.163" r="0.5" fill="#15223a"/><circle cx="45.163" cy="44.163" r="0.5" fill="#15223a"/><circle cx="46.163" cy="44.163" r="0.5" fill="#15223a"/><circle cx="48.163" cy="44.163" r="0.5" fill="#15223a"/><circle cx="49.163" cy="44.163" r="0.5" fill="#15223a"/><circle cx="53.163" cy="44.163" r="0.5" fill="#15223a"/><circle cx="17.163" cy="45.163" r="0.5" fill="#15223a"/><circle cx="19.163" cy="45.163" r="0.5" fill="#15223a"/><circle cx="20.163" cy="45.163" r="0.5" fill="#15223a"/><circle cx="21.163" cy="45.163" r="0.5" fill="#15223a"/><circle cx="22.163" cy="45.163" r="0.5" fill="#15223a"/><circle cx="23.163" cy="45.163" r="0.5" fill="#15223a"/><circle cx="24.163" cy="45.163" r="0.5" fill="#15223a"/><circle cx="25.163" cy="45.163" r="0.5" fill="#15223a"/><circle cx="26.163" cy="45.163" r="0.5" fill="#15223a"/><circle cx="28.163" cy="45.163" r="0.5" fill="#15223a"/><circle cx="29.163" cy="45.163" r="0.5" fill="#15223a"/><circle cx="30.163" cy="45.163" r="0.5" fill="#15223a"/><circle cx="31.163" cy="45.163" r="0.5" fill="#15223a"/><circle cx="32.163" cy="45.163" r="0.5" fill="#15223a"/><circle cx="33.163" cy="45.163" r="0.5" fill="#15223a"/><circle cx="35.163" cy="45.163" r="0.5" fill="#15223a"/><circle cx="36.163" cy="45.163" r="0.5" fill="#15223a"/><circle cx="37.163" cy="45.163" r="0.5" fill="#15223a"/><circle cx="42.163" cy="45.163" r="0.5" fill="#15223a"/><circle cx="43.163" cy="45.163" r="0.5" fill="#15223a"/><circle cx="45.163" cy="45.163" r="0.5" fill="#15223a"/><circle cx="46.163" cy="45.163" r="0.5" fill="#15223a"/><circle cx="47.163" cy="45.163" r="0.5" fill="#15223a"/><circle cx="48.163" cy="45.163" r="0.5" fill="#15223a"/><circle cx="49.163" cy="45.163" r="0.5" fill="#15223a"/><circle cx="50.163" cy="45.163" r="0.5" fill="#15223a"/><circle cx="51.163" cy="45.163" r="0.5" fill="#15223a"/><circle cx="53.163" cy="45.163" r="0.5" fill="#15223a"/><circle cx="25.163" cy="46.163" r="0.5" fill="#15223a"/><circle cx="28.163" cy="46.163" r="0.5" fill="#15223a"/><circle cx="29.163" cy="46.163" r="0.5" fill="#15223a"/><circle cx="30.163" cy="46.163" r="0.5" fill="#15223a"/><circle cx="35.163" cy="46.163" r="0.5" fill="#15223a"/><circle cx="37.163" cy="46.163" r="0.5" fill="#15223a"/><circle cx="40.163" cy="46.163" r="0.5" fill="#15223a"/><circle cx="45.163" cy="46.163" r="0.5" fill="#15223a"/><circle cx="49.163" cy="46.163" r="0.5" fill="#15223a"/><circle cx="52.163" cy="46.163" r="0.5" fill="#15223a"/><circle cx="26.163" cy="47.163" r="0.5" fill="#15223a"/><circle cx="27.163" cy="47.163" r="0.5" fill="#15223a"/><circle cx="28.163" cy="47.163" r="0.5" fill="#15223a"/><circle cx="29.163" cy="47.163" r="0.5" fill="#15223a"/><circle cx="32.163" cy="47.163" r="0.5" fill="#15223a"/><circle cx="37.163" cy="47.163" r="0.5" fill="#15223a"/><circle cx="39.163" cy="47.163" r="0.5" fill="#15223a"/><circle cx="45.163" cy="47.163" r="0.5" fill="#15223a"/><circle cx="47.163" cy="47.163" r="0.5" fill="#15223a"/><circle cx="49.163" cy="47.163" r="0.5" fill="#15223a"/><circle cx="50.163" cy="47.163" r="0.5" fill="#15223a"/><circle cx="52.163" cy="47.163" r="0.5" fill="#15223a"/><circle cx="53.163" cy="47.163" r="0.5" fill="#15223a"/><circle cx="26.163" cy="48.163" r="0.5" fill="#15223a"/><circle cx="29.163" cy="48.163" r="0.5" fill="#15223a"/><circle cx="31.163" cy="48.163" r="0.5" fill="#15223a"/><circle cx="36.163" cy="48.163" r="0.5" fill="#15223a"/><circle cx="37.163" cy="48.163" r="0.5" fill="#15223a"/><circle cx="38.163" cy="48.163" r="0.5" fill="#15223a"/><circle cx="41.163" cy="48.163" r="0.5" fill="#15223a"/><circle cx="43.163" cy="48.163" r="0.5" fill="#15223a"/><circle cx="45.163" cy="48.163" r="0.5" fill="#15223a"/><circle cx="49.163" cy="48.163" r="0.5" fill="#15223a"/><circle cx="52.163" cy="48.163" r="0.5" fill="#15223a"/><circle cx="25.163" cy="49.163" r="0.5" fill="#15223a"/><circle cx="27.163" cy="49.163" r="0.5" fill="#15223a"/><circle cx="29.163" cy="49.163" r="0.5" fill="#15223a"/><circle cx="31.163" cy="49.163" r="0.5" fill="#15223a"/><circle cx="32.163" cy="49.163" r="0.5" fill="#15223a"/><circle cx="33.163" cy="49.163" r="0.5" fill="#15223a"/><circle cx="34.163" cy="49.163" r="0.5" fill="#15223a"/><circle cx="36.163" cy="49.163" r="0.5" fill="#15223a"/><circle cx="37.163" cy="49.163" r="0.5" fill="#15223a"/><circle cx="39.163" cy="49.163" r="0.5" fill="#15223a"/><circle cx="41.163" cy="49.163" r="0.5" fill="#15223a"/><circle cx="42.163" cy="49.163" r="0.5" fill="#15223a"/><circle cx="43.163" cy="49.163" r="0.5" fill="#15223a"/><circle cx="44.163" cy="49.163" r="0.5" fill="#15223a"/><circle cx="45.163" cy="49.163" r="0.5" fill="#15223a"/><circle cx="46.163" cy="49.163" r="0.5" fill="#15223a"/><circle cx="47.163" cy="49.163" r="0.5" fill="#15223a"/><circle cx="48.163" cy="49.163" r="0.5" fill="#15223a"/><circle cx="49.163" cy="49.163" r="0.5" fill="#15223a"/><circle cx="51.163" cy="49.163" r="0.5" fill="#15223a"/><circle cx="52.163" cy="49.163" r="0.5" fill="#15223a"/><circle cx="53.163" cy="49.163" r="0.5" fill="#15223a"/><circle cx="25.163" cy="50.163" r="0.5" fill="#15223a"/><circle cx="27.163" cy="50.163" r="0.5" fill="#15223a"/><circle cx="28.163" cy="50.163" r="0.5" fill="#15223a"/><circle cx="29.163" cy="50.163" r="0.5" fill="#15223a"/><circle cx="31.163" cy="50.163" r="0.5" fill="#15223a"/><circle cx="33.163" cy="50.163" r="0.5" fill="#15223a"/><circle cx="38.163" cy="50.163" r="0.5" fill="#15223a"/><circle cx="39.163" cy="50.163" r="0.5" fill="#15223a"/><circle cx="42.163" cy="50.163" r="0.5" fill="#15223a"/><circle cx="43.163" cy="50.163" r="0.5" fill="#15223a"/><circle cx="47.163" cy="50.163" r="0.5" fill="#15223a"/><circle cx="49.163" cy="50.163" r="0.5" fill="#15223a"/><circle cx="51.163" cy="50.163" r="0.5" fill="#15223a"/><circle cx="25.163" cy="51.163" r="0.5" fill="#15223a"/><circle cx="27.163" cy="51.163" r="0.5" fill="#15223a"/><circle cx="28.163" cy="51.163" r="0.5" fill="#15223a"/><circle cx="31.163" cy="51.163" r="0.5" fill="#15223a"/><circle cx="32.163" cy="51.163" r="0.5" fill="#15223a"/><circle cx="35.163" cy="51.163" r="0.5" fill="#15223a"/><circle cx="37.163" cy="51.163" r="0.5" fill="#15223a"/><circle cx="38.163" cy="51.163" r="0.5" fill="#15223a"/><circle cx="39.163" cy="51.163" r="0.5" fill="#15223a"/><circle cx="40.163" cy="51.163" r="0.5" fill="#15223a"/><circle cx="41.163" cy="51.163" r="0.5" fill="#15223a"/><circle cx="42.163" cy="51.163" r="0.5" fill="#15223a"/><circle cx="44.163" cy="51.163" r="0.5" fill="#15223a"/><circle cx="46.163" cy="51.163" r="0.5" fill="#15223a"/><circle cx="48.163" cy="51.163" r="0.5" fill="#15223a"/><circle cx="51.163" cy="51.163" r="0.5" fill="#15223a"/><circle cx="53.163" cy="51.163" r="0.5" fill="#15223a"/><circle cx="26.163" cy="52.163" r="0.5" fill="#15223a"/><circle cx="27.163" cy="52.163" r="0.5" fill="#15223a"/><circle cx="30.163" cy="52.163" r="0.5" fill="#15223a"/><circle cx="35.163" cy="52.163" r="0.5" fill="#15223a"/><circle cx="37.163" cy="52.163" r="0.5" fill="#15223a"/><circle cx="38.163" cy="52.163" r="0.5" fill="#15223a"/><circle cx="40.163" cy="52.163" r="0.5" fill="#15223a"/><circle cx="43.163" cy="52.163" r="0.5" fill="#15223a"/><circle cx="45.163" cy="52.163" r="0.5" fill="#15223a"/><circle cx="46.163" cy="52.163" r="0.5" fill="#15223a"/><circle cx="49.163" cy="52.163" r="0.5" fill="#15223a"/><circle cx="53.163" cy="52.163" r="0.5" fill="#15223a"/><circle cx="28.163" cy="53.163" r="0.5" fill="#15223a"/><circle cx="29.163" cy="53.163" r="0.5" fill="#15223a"/><circle cx="33.163" cy="53.163" r="0.5" fill="#15223a"/><circle cx="35.163" cy="53.163" r="0.5" fill="#15223a"/><circle cx="40.163" cy="53.163" r="0.5" fill="#15223a"/><circle cx="41.163" cy="53.163" r="0.5" fill="#15223a"/><circle cx="42.163" cy="53.163" r="0.5" fill="#15223a"/><circle cx="43.163" cy="53.163" r="0.5" fill="#15223a"/><circle cx="46.163" cy="53.163" r="0.5" fill="#15223a"/><circle cx="47.163" cy="53.163" r="0.5" fill="#15223a"/><circle cx="48.163" cy="53.163" r="0.5" fill="#15223a"/><circle cx="51.163" cy="53.163" r="0.5" fill="#15223a"/><circle cx="52.163" cy="53.163" r="0.5" fill="#15223a"/><circle cx="53.163" cy="53.163" r="0.5" fill="#15223a"/><path d="M16.663,16.663h7v7h-7z M17.663,17.663h5v5h-5z" fill="#15223a" fill-rule="evenodd"/><rect x="18.663" y="18.663" width="3" height="3" fill="#15223a"/><path d="M46.663,16.663h7v7h-7z M47.663,17.663h5v5h-5z" fill="#15223a" fill-rule="evenodd"/><rect x="48.663" y="18.663" width="3" height="3" fill="#15223a"/><path d="M16.663,46.663h7v7h-7z M17.663,47.663h5v5h-5z" fill="#15223a" fill-rule="evenodd"/><rect x="18.663" y="48.663" width="3" height="3" fill="#15223a"/><text x="35.163" y="35.163" fill="#c07307" font-family="Poppins, sans-serif" font-size="4.593" font-weight="800" text-anchor="middle" dominant-baseline="middle"><tspan x="35.163" dy="0" textLength="10.656" lengthAdjust="spacingAndGlyphs">SCAN</tspan></text><path d="M66.326,35.163 A31.163,31.163 0 1 0 4,35.163 A31.163,31.163 0 1 0 66.326,35.163 M61.326,35.163 A26.163,26.163 0 1 1 9,35.163 A26.163,26.163 0 1 1 61.326,35.163" fill="#15223a" fill-rule="evenodd" fill-opacity="0.8"/><path d="M66.326,35.163 A31.163,31.163 0 1 0 4,35.163 A31.163,31.163 0 1 0 66.326,35.163 M64.926,35.163 A29.763,29.763 0 1 1 5.4,35.163 A29.763,29.763 0 1 1 64.926,35.163" fill="#d400ff" fill-rule="evenodd" fill-opacity="0.35"/></svg>